<mxfile host="app.diagrams.net" modified="2024-07-23T18:54:27.252Z" agent="Mozilla/5.0 (Windows NT 10.0; Win64; x64) AppleWebKit/537.36 (KHTML, like Gecko) Chrome/126.0.0.0 Safari/537.36" version="24.7.1" etag="ST2nKanFe9nckWNI0ANV" type="github">
  <diagram name="PÃ¡gina-1" id="tUvfzQ_1--VT2v-eVA1h">
    <mxGraphModel>
      <root>
        <mxCell id="0" />
        <mxCell id="1" parent="0" />
      </root>
    </mxGraphModel>
  </diagram>
</mxfile>
